<svg version="1.1" id="Layer_1" xmlns="http://www.w3.org/2000/svg" xmlns:xlink="http://www.w3.org/1999/xlink" x="0px" y="0px"
	 viewBox="0 0 51.4 45.8" enable-background="new 0 0 51.4 45.8" xml:space="preserve">
<linearGradient id="SVGID_1_" gradientUnits="userSpaceOnUse" x1="18.6305" y1="3.4272" x2="33.9942" y2="40.207">
	<stop  offset="0" style="stop-color:#F2D200"/>
	<stop  offset="1" style="stop-color:#E1A712"/>
</linearGradient>
<path fill="url(#SVGID_1_)" d="M38,43.3c-0.3,0-0.6-0.1-0.9-0.2L26,37.2l-11.2,5.9c-0.3,0.1-0.6,0.2-0.9,0.2c-0.4,0-0.8-0.1-1.1-0.4
	c-0.6-0.4-0.9-1.1-0.7-1.8l2.1-12.4l-9-8.8c-0.5-0.5-0.7-1.2-0.5-1.9c0.2-0.7,0.8-1.2,1.5-1.3l12.5-1.8l5.6-11.3c0.3-0.6,1-1,1.7-1
	s1.4,0.4,1.7,1l5.6,11.3l12.5,1.8c0.7,0.1,1.3,0.6,1.5,1.3c0.2,0.7,0,1.4-0.5,1.9l-9,8.8l2.1,12.4c0.1,0.7-0.2,1.4-0.7,1.8
	C38.8,43.2,38.4,43.3,38,43.3z"/>
</svg>
